<svg width="58" height="58" viewBox="0 0 58 58" fill="none" xmlns="http://www.w3.org/2000/svg">
<rect width="57.2554" height="57.2554" fill="#F6F1EB"/>
<path fill-rule="evenodd" clip-rule="evenodd" d="M31.2406 22.2952C31.2781 22.1821 31.3353 22.0715 31.3503 21.9555C31.4137 21.4688 31.4208 20.9707 31.5298 20.4953C31.8438 19.127 31.8075 17.7266 31.9519 16.3434C32.0983 14.9413 32.1452 13.5287 32.3022 12.1283C32.3872 11.372 32.581 10.6223 32.7882 9.88695C32.8737 9.58098 33.1068 9.30995 33.2996 9.04214C33.4601 8.81984 33.6707 8.8118 33.9249 8.938C34.5026 9.22489 34.815 9.72879 34.9683 10.3023C35.2725 11.4409 35.3465 12.6207 35.455 13.7906C35.5148 14.4356 35.4936 15.0878 35.5417 15.7342C35.6249 16.867 35.7916 17.9969 35.8164 19.1305C35.855 20.8598 35.889 22.5851 36.0906 24.3064C36.2042 25.2782 36.2244 26.2607 36.3095 27.2363C36.3226 27.3896 36.4348 27.5514 36.5391 27.6779C37.275 28.5703 37.5262 29.6316 37.3265 30.7162C37.1874 31.4691 36.8115 32.2047 36.423 32.8796C35.8361 33.8998 35.1451 34.86 34.4992 35.8469C34.0674 36.5069 33.6265 37.1759 33.5047 37.9676C33.258 39.5703 33.3626 41.1815 33.5093 42.7861C33.581 43.5661 33.7415 44.3376 33.8458 45.1152C34.0392 46.5525 34.2382 47.9885 34.3964 49.4294C34.4403 49.8267 34.4727 50.3103 34.2909 50.6278C33.9845 51.163 33.5272 51.6124 32.9397 51.9068C32.3116 52.222 31.6604 52.3572 30.9666 52.4425C29.4353 52.6319 27.9032 52.5593 26.3708 52.574C26.2933 52.5753 26.2138 52.5579 26.1389 52.536C25.0646 52.2255 23.9823 51.9404 22.9201 51.5928C22.1576 51.3432 22.044 51.105 22.1171 50.3106C22.1247 50.2329 22.1385 50.1547 22.1553 50.0779C22.4725 48.6002 22.7994 47.1235 23.1065 45.6435C23.4506 43.9888 23.7534 42.3298 23.6856 40.6243C23.6619 40.0239 23.5637 39.4515 23.2913 38.917C23.0235 38.3922 22.7424 37.874 22.4619 37.3552C21.7231 35.9888 21.3767 34.4918 21.0415 32.9969C20.9047 32.3879 20.8718 31.7532 20.8203 31.1279C20.7348 30.0926 20.6463 29.0569 20.6091 28.0193C20.5723 26.999 20.6017 25.9763 20.5955 24.9549C20.5925 24.5262 20.5803 24.0973 20.5574 23.6688C20.5238 23.0428 20.4564 22.418 20.4477 21.7918C20.4447 21.5955 20.5383 21.3594 20.6656 21.2077C21.0976 20.695 21.6817 20.433 22.3189 20.2447C22.7746 20.1102 23.1173 20.3631 23.5058 20.4672C23.5791 20.4865 23.649 20.5182 23.7483 20.5546C24.8242 19.5976 26.0014 19.578 27.2037 20.2691C27.2561 20.1835 27.2915 20.1525 27.2926 20.1201C27.3526 18.7449 27.4317 17.3703 27.4611 15.9942C27.5066 13.8692 27.5101 11.7435 27.5476 9.61845C27.5609 8.87203 27.6214 8.12675 27.6625 7.38056C27.7057 6.58425 28.037 5.94611 28.7023 5.48956C29.2632 5.10382 29.7563 5.19738 30.0841 5.78703C30.2163 6.02426 30.3137 6.29001 30.3767 6.55506C30.8123 8.38077 30.9061 10.2472 30.9781 12.1115C31.0296 13.429 31.0144 14.7492 31.0346 16.0678C31.0572 17.542 31.0923 19.0157 31.1087 20.49C31.1155 21.0858 31.0723 21.6831 31.1174 22.2768C31.1581 22.2837 31.1995 22.2895 31.2406 22.2952ZM26.5832 31.244C25.9269 31.9594 25.6331 32.8539 25.1697 33.7727C24.9377 33.2826 25.0982 32.9178 25.217 32.5654C25.4805 31.7863 25.9733 31.15 26.5246 30.5539C26.6267 30.4431 26.7179 30.322 26.8623 30.1473C26.6991 30.1316 26.6101 30.1185 26.5212 30.1155C25.792 30.0893 25.2177 29.7905 24.9267 29.1047C24.7938 28.7916 24.6168 28.6942 24.301 28.7126C23.9476 28.7333 23.5927 28.7218 23.2385 28.7151C22.3727 28.6988 21.7435 28.2599 21.3093 27.5503C21.1893 27.3533 21.1764 27.0604 21.1939 26.817C21.2203 26.4308 21.1445 26.088 20.9555 25.7283C20.9555 26.5436 20.9249 27.3223 20.9629 28.0976C21.0171 29.2139 21.1088 30.3296 21.2111 31.4426C21.2691 32.0661 21.3456 32.692 21.4766 33.3033C21.6364 34.0516 21.8525 34.789 22.0633 35.5258C22.3461 36.5152 22.8217 37.4193 23.3382 38.303C23.729 38.9708 24.0552 39.6744 24.0909 40.4514C24.1364 41.4512 24.1531 42.4544 23.9573 43.4495C23.5626 45.4527 23.1913 47.461 22.8012 49.4653C22.7302 49.8313 22.5934 50.1839 22.5219 50.5492C22.4403 50.9662 22.515 51.1289 22.8757 51.2374C23.9076 51.5501 24.9467 51.84 25.9865 52.1273C26.1731 52.1781 26.3754 52.1919 26.5694 52.1887C27.8078 52.1634 29.048 52.1634 30.2829 52.0825C31.0783 52.0303 31.8737 51.9381 32.6079 51.5266C33.1252 51.2361 33.5121 50.8361 33.8674 50.3922C33.9651 50.2699 34.0038 50.0609 33.9927 49.897C33.9401 49.1149 33.8849 48.3315 33.7872 47.5536C33.5783 45.8794 33.2921 44.213 33.1344 42.5346C33.0151 41.2657 33.0231 39.9827 33.0155 38.7062C33.0079 37.5239 33.4757 36.4938 34.1307 35.5306C34.7939 34.5555 35.4745 33.5877 36.0656 32.5688C36.4465 31.9123 36.843 31.1916 36.9407 30.4606C37.0913 29.3247 36.9373 28.1726 35.8842 27.3993C34.3279 26.2551 32.6944 25.2365 30.9489 24.4028C30.2498 24.0692 29.5282 23.7904 28.7416 23.8529C28.2763 23.8901 27.8007 23.9789 27.3625 24.1356C26.6237 24.4002 25.9062 24.7283 25.1872 25.0462C24.3246 25.4273 23.4647 25.8152 22.6143 26.2234C22.3176 26.3664 22.0279 26.5501 21.7824 26.7685C21.4934 27.0252 21.4966 27.356 21.7212 27.6708C22.0058 28.0687 22.4249 28.2765 22.8815 28.294C24.0768 28.3399 25.2828 28.4192 26.446 28.0287C26.7791 27.917 27.1046 27.7747 27.4172 27.6154C27.8283 27.4066 27.8299 27.3977 28.1041 27.8126C28.3413 28.1721 28.563 28.5448 28.8273 28.8841C29.6868 29.987 30.6965 30.8548 32.1898 30.9199C32.3709 30.9279 32.3709 30.9403 32.578 31.2629C32.1256 31.3868 31.7162 31.2971 31.3144 31.1555C30.5388 30.881 29.891 30.4059 29.3039 29.8401C29.1082 29.6509 28.9177 29.4565 28.722 29.2618C27.8637 29.8089 27.2368 30.5318 26.5832 31.244ZM28.1604 7.05666C28.0489 7.57159 28.0085 8.10859 27.9981 8.63686C27.9515 10.9389 27.9416 13.2416 27.8896 15.5432C27.862 16.7604 27.7758 17.9762 27.7135 19.1925C27.6726 19.9966 27.6478 20.8026 27.5738 21.604C27.5363 22.0106 27.3965 22.4065 27.3211 22.8108C27.2754 23.0536 27.2644 23.3028 27.234 23.5911C27.4037 23.5805 27.5007 23.5922 27.586 23.5662C28.5384 23.2791 29.4639 23.4175 30.3468 23.8014C32.1208 24.572 33.7652 25.5738 35.3325 26.7046C35.4722 26.8053 35.6194 26.8965 35.8456 27.0471C35.8456 26.7082 35.8617 26.445 35.8428 26.1843C35.8012 25.6175 35.7428 25.0522 35.6899 24.486C35.641 23.9591 35.5899 23.4324 35.538 22.9058C35.5304 22.8281 35.5067 22.7508 35.5033 22.6729C35.4674 21.9083 35.4403 21.1433 35.3998 20.3789C35.3157 18.7916 35.224 17.2041 35.1369 15.6167C35.1005 14.9512 35.0895 14.2832 35.026 13.62C34.9162 12.4699 34.8539 11.3113 34.555 10.1879C34.5047 10.0005 34.4164 9.8196 34.3201 9.65017C34.173 9.39018 33.938 9.26972 33.6355 9.26466C33.3173 9.25938 33.2613 9.51891 33.1684 9.72305C32.8116 10.5058 32.7275 11.3561 32.6535 12.1924C32.5272 13.6181 32.4935 15.0521 32.384 16.4795C32.282 17.8073 32.1433 19.1328 31.9967 20.4566C31.9321 21.0389 31.8236 21.6187 31.6994 22.1915C31.6608 22.3676 31.5355 22.5621 31.3912 22.666C31.2755 22.7488 31.0542 22.7564 30.9105 22.7069C30.7493 22.6508 30.7002 22.4936 30.7002 22.2791C30.7008 20.1576 30.6788 18.0355 30.6523 15.914C30.636 14.5961 30.6135 13.2779 30.5714 11.9607C30.513 10.1325 30.4385 8.30422 30.0022 6.51529C29.9301 6.2192 29.8098 5.93484 29.7176 5.66082C28.9059 5.76243 28.3328 6.26035 28.1604 7.05666ZM23.3116 25.3611C23.8115 25.1221 23.8074 25.0772 23.7325 24.5455C23.658 24.0237 23.6118 23.4959 23.5886 22.9692C23.5649 22.4389 23.5874 21.9067 23.5847 21.3757C23.5821 20.8288 23.1706 20.453 22.6408 20.5822C22.2458 20.6785 21.8541 20.8428 21.504 21.05C21.0215 21.3359 20.7826 21.7536 20.824 22.3727C20.8893 23.3453 21.2548 25.4821 21.5652 26.1646C22.1716 25.8869 22.7451 25.6319 23.3116 25.3611ZM26.8239 23.7908C26.9 22.7212 26.9763 21.6562 27.0584 20.5159C26.3531 20.1332 25.5894 19.998 24.7888 20.4474C24.72 20.4858 24.6573 20.5357 24.5858 20.5658C24.1297 20.7578 23.9635 21.0847 23.998 21.586C24.0633 22.5233 24.0713 23.4642 24.1111 24.4032C24.1173 24.557 24.1653 24.709 24.2069 24.9338C25.1345 24.5285 25.9917 24.154 26.8239 23.7908ZM25.2216 28.7682C25.3343 29.5576 26.3202 30.0027 26.9549 29.5746C27.1772 29.425 27.2632 29.2349 27.2002 28.973C27.1552 28.7854 27.1216 28.5956 27.0784 28.3878C26.4315 28.5206 25.8255 28.6445 25.2216 28.7682ZM27.9007 28.0165C27.3915 28.214 27.3915 28.214 27.6673 29.4245C27.9381 29.2464 28.1811 29.0864 28.4843 28.8875C28.2551 28.5455 28.0742 28.2763 27.9007 28.0165Z" fill="black"/>
</svg>
