<svg width="58" height="58" viewBox="0 0 58 58" fill="none" xmlns="http://www.w3.org/2000/svg">
<rect width="57.2554" height="57.2554" fill="#F6F1EB"/>
<path fill-rule="evenodd" clip-rule="evenodd" d="M30.6771 22.0903C30.7047 21.9822 30.7428 21.8758 30.7589 21.7659C30.8386 21.2093 30.925 20.6531 30.9857 20.0943C31.127 18.7863 31.3209 17.4792 31.3728 16.1671C31.4445 14.3815 31.5638 12.6066 31.907 10.8512C32.0226 10.2594 32.1609 9.66692 32.5412 9.17433C32.8856 8.72691 33.1369 8.69195 33.5859 9.03654C34.0181 9.36841 34.3002 9.80902 34.393 10.3477C34.5148 11.0528 34.6573 11.7576 34.7234 12.4686C34.8608 13.933 34.9716 15.4003 35.058 16.8688C35.1393 18.2637 35.1745 19.6614 35.2305 21.0577C35.2324 21.0967 35.234 21.1355 35.2381 21.1743C35.3351 22.1759 35.4446 23.1758 35.5253 24.1785C35.5993 25.1056 35.6326 26.036 35.7082 26.9633C35.7201 27.1138 35.8362 27.2727 35.9418 27.3967C36.7024 28.2915 36.9544 29.35 36.726 30.4494C36.5753 31.1747 36.2224 31.8829 35.8428 32.5324C35.2537 33.5391 34.5844 34.5023 33.914 35.4598C33.1631 36.5335 32.7758 37.6908 32.7999 39.0088C32.8265 40.465 32.838 41.9157 33.0751 43.3606C33.3042 44.756 33.4784 46.16 33.6548 47.5633C33.7398 48.2355 33.7945 48.9129 33.8186 49.5891C33.826 49.8011 33.7378 50.052 33.6105 50.2258C33.1011 50.9218 32.4238 51.416 31.5819 51.6491C31.2081 51.7524 30.8106 51.7724 30.4251 51.8339C28.9008 52.0773 27.3651 51.9713 25.8331 51.9878C25.7364 51.9883 25.6364 51.9701 25.5429 51.9436C24.4681 51.638 23.3799 51.3711 22.3253 51.0088C21.5078 50.7271 21.3902 50.538 21.5586 49.6247C21.8304 48.1567 22.2052 46.7084 22.5087 45.2459C22.8522 43.5919 23.186 41.9364 23.11 40.2305C23.0822 39.6194 22.9951 39.034 22.7042 38.4882C22.3931 37.9042 22.0845 37.3194 21.773 36.7353C21.162 35.5896 20.8811 34.3366 20.5619 33.096C20.2458 31.867 20.2446 30.6017 20.1323 29.3498C20.0838 28.8091 20.036 28.2672 20.0243 27.7254C20.0031 26.7361 20.0098 25.7459 20.0036 24.7564C20.0013 24.3342 20.0098 23.9115 19.988 23.4904C19.9551 22.8532 19.8837 22.2176 19.8644 21.58C19.8593 21.4038 19.9402 21.1909 20.053 21.0515C20.4183 20.6005 20.9215 20.3435 21.4612 20.134C21.9232 19.9547 22.3433 20.0386 22.772 20.2116C22.7986 20.2225 22.8425 20.1921 22.9262 20.1658C22.8974 19.8312 22.8696 19.4857 22.8372 19.1406C22.7228 17.9232 22.5528 16.7078 22.5055 15.4879C22.4473 13.9934 22.4634 12.4942 22.5055 10.999C22.5234 10.3652 22.6525 9.72685 22.797 9.10577C22.9165 8.59025 23.2487 8.35712 23.702 8.33487C24.3638 8.30264 24.7181 8.48469 24.9384 9.0102C25.0434 9.25968 25.1217 9.5255 25.1702 9.79109C25.4135 11.1293 25.5937 12.4724 25.6513 13.836C25.6957 14.8807 25.8866 15.9188 25.9843 16.9621C26.1175 18.3929 26.2198 19.8264 26.348 21.2572C26.3687 21.4894 26.4553 21.716 26.5118 21.9448C26.5637 21.94 26.6156 21.9357 26.6673 21.9309C26.6818 21.7119 26.7071 21.4926 26.7089 21.2731C26.7165 20.437 26.697 19.5999 26.7241 18.7643C26.7636 17.5419 26.8711 16.3213 26.8845 15.0991C26.9123 12.5528 26.8872 10.0063 27.0632 7.46318C27.1232 6.58923 27.4591 5.88416 28.2316 5.42516C28.7244 5.1321 29.1547 5.22449 29.4454 5.69802C29.5949 5.9425 29.7073 6.22239 29.7753 6.50092C30.2236 8.32261 30.3362 10.1824 30.3828 12.0479C30.4152 13.3103 30.4324 14.5729 30.4618 15.8348C30.4788 16.5535 30.5167 17.2715 30.5278 17.9902C30.5393 18.7461 30.5462 19.5027 30.5252 20.2582C30.508 20.8665 30.4618 21.4731 30.5367 22.0774C30.5845 22.0817 30.6309 22.086 30.6771 22.0903ZM27.2753 27.6854C26.4277 28.2228 25.5192 28.3678 24.6029 28.4273C23.8801 28.4743 23.1456 28.4854 22.4267 28.4137C21.6351 28.3344 21.0506 27.8639 20.6688 27.1779C20.5904 27.0364 20.5847 26.8401 20.5904 26.6707C20.6118 26.056 20.6189 26.0562 20.3533 25.4134C20.3533 26.2472 20.3175 26.9915 20.3613 27.7311C20.4266 28.8318 20.5426 29.9298 20.6458 31.0278C20.7 31.6067 20.7191 32.196 20.8496 32.7587C21.0775 33.7414 21.3318 34.7239 21.6657 35.6752C21.9081 36.3665 22.2486 37.0361 22.6304 37.6651C23.2338 38.6585 23.5522 39.6902 23.5366 40.8629C23.521 42.0358 23.3717 43.184 23.1506 44.3272C22.8563 45.8511 22.5349 47.3692 22.2212 48.889C22.1705 49.1355 22.0866 49.3759 22.043 49.6227C21.9922 49.9049 21.969 50.1911 21.9338 50.4749C22.0453 50.5398 22.1057 50.5934 22.1762 50.614C23.2471 50.9275 24.3178 51.2421 25.3926 51.542C25.5969 51.5987 25.82 51.609 26.0341 51.6051C27.2514 51.5806 28.4716 51.5794 29.6866 51.502C30.5018 51.4505 31.3184 51.3565 32.0646 50.9332C32.5782 50.6424 33.0016 50.2615 33.2968 49.7907C33.4607 49.5296 33.4476 49.1153 33.409 48.7821C33.1948 46.935 32.9756 45.0872 32.705 43.2478C32.4858 41.7646 32.4107 40.2802 32.4045 38.7842C32.398 37.4325 32.7847 36.2332 33.5629 35.1295C34.2143 34.2058 34.8638 33.276 35.4355 32.3043C35.8176 31.6557 36.1227 30.9472 36.354 30.2317C36.6824 29.2134 36.0926 27.7095 35.217 27.0712C33.6939 25.9618 32.0876 24.9877 30.3821 24.1755C29.6848 23.8432 28.9643 23.5674 28.1785 23.6248C27.713 23.6591 27.2367 23.7445 26.799 23.8988C26.0601 24.159 25.343 24.4829 24.6241 24.7968C23.7622 25.1734 22.9036 25.5589 22.0526 25.9591C21.7723 26.0912 21.4941 26.2521 21.2592 26.4508C20.9148 26.7416 20.922 27.1318 21.2149 27.4805C21.4975 27.8178 21.8869 27.9921 22.2982 28.0087C23.4734 28.0559 24.6585 28.131 25.8044 27.7667C26.1754 27.6487 26.532 27.482 26.8842 27.3147C27.227 27.1518 27.2898 27.1554 27.5005 27.4723C27.7479 27.8439 27.9701 28.2346 28.2435 28.5864C29.0968 29.6824 30.1103 30.5291 31.5994 30.6085C31.7425 30.6163 31.8799 30.7302 32.001 30.8635C31.5498 31.0719 31.1263 30.9731 30.7109 30.8271C29.9552 30.5622 29.3181 30.1087 28.7517 29.5584C28.5567 29.3689 28.3912 29.1498 28.2077 28.9389C27.2944 29.4781 26.6804 30.2006 26.0256 30.8977C25.357 31.6092 25.0565 32.5076 24.5683 33.3228C24.3925 32.9042 24.5319 32.5328 24.665 32.1637C24.9352 31.4173 25.3977 30.7892 25.9604 30.2406C26.5587 29.6576 27.1921 29.1094 27.8492 28.5106C27.6845 28.2725 27.4883 27.991 27.2753 27.6854ZM26.4325 23.549C27.5512 23.0516 28.6573 23.1034 29.7441 23.5633C31.5031 24.3074 33.1254 25.2967 34.6844 26.3897C34.8284 26.4909 34.9716 26.5938 35.1188 26.69C35.146 26.7077 35.1917 26.6978 35.3063 26.7068C35.2666 26.1675 35.2323 25.6383 35.1862 25.1099C35.129 24.455 35.0373 23.8023 35.0044 23.1463C34.9334 21.7119 34.9102 20.275 34.8284 18.841C34.7639 17.7212 34.6313 16.6057 34.5463 15.4873C34.498 14.8487 34.5088 14.2056 34.4507 13.5682C34.3485 12.4513 34.2919 11.3247 33.993 10.2362C33.9133 9.94636 33.7702 9.6449 33.5719 9.4229C33.258 9.07218 32.8286 9.15821 32.6312 9.57839C32.5078 9.84126 32.3865 10.1193 32.3438 10.4022C32.2009 11.3402 32.0835 12.282 31.9769 13.2245C31.9077 13.8397 31.8742 14.4583 31.825 15.0757C31.8131 15.2303 31.8004 15.3849 31.7933 15.5397C31.7218 17.2422 31.6973 18.9484 31.3455 20.6279C31.2619 21.025 31.2412 21.4343 31.1667 21.8338C31.1362 22.0013 31.0652 22.1727 30.9708 22.3157C30.8471 22.5034 30.6546 22.6249 30.4161 22.5429C30.1859 22.4642 30.1236 22.2957 30.1252 22.0408C30.1367 20.1365 30.1397 18.2317 30.1172 16.3276C30.0977 14.6569 30.0843 12.9846 29.9908 11.317C29.8985 9.67146 29.8068 8.02093 29.4134 6.40536C29.2027 5.54275 28.9431 5.45263 28.2357 6.01378C27.8088 6.35292 27.5694 6.78331 27.5232 7.30519C27.4499 8.1367 27.3812 8.97025 27.3651 9.80426C27.327 11.7669 27.3449 13.7312 27.2953 15.6936C27.2502 17.459 27.1491 19.2228 27.0628 20.9871C27.0467 21.3155 26.9628 21.6408 26.9417 21.9695C26.9288 22.1713 26.8916 22.3205 26.6584 22.3243C26.4472 22.328 26.2522 22.2626 26.2016 22.0367C26.1161 21.659 26.0332 21.2781 25.9921 20.8938C25.8306 19.3876 25.6805 17.8803 25.5365 16.3726C25.4087 15.0398 25.3189 13.703 25.1661 12.373C25.0505 11.3713 24.8839 10.3734 24.6965 9.38203C24.5852 8.79296 24.5108 8.76141 24.1005 8.74484C23.6262 8.72577 23.3273 8.88218 23.2124 9.33732C23.0711 9.89937 22.9432 10.4803 22.9298 11.0557C22.8928 12.7063 22.8875 14.3591 22.9275 16.0098C22.9507 16.9389 23.1035 17.8646 23.1688 18.7938C23.2639 20.1494 23.3505 21.506 23.4047 22.8635C23.4284 23.465 23.4785 24.0536 23.6419 24.6502C24.6163 24.2693 25.5406 23.9454 26.4325 23.549ZM22.7844 25.0876C23.1906 24.8938 23.2478 24.8225 23.1662 24.415C22.9863 23.5118 23.03 22.602 23.0243 21.6924C23.0233 21.5176 23.0047 21.3423 23.0176 21.1691C23.0631 20.5535 22.579 20.3256 21.9301 20.4402C21.6468 20.4904 21.3613 20.6032 21.1104 20.7455C20.5605 21.0577 20.2051 21.4451 20.2432 22.1806C20.3096 23.4689 20.6628 24.6858 20.9194 25.9441C21.5816 25.6408 22.1875 25.3727 22.7844 25.0876Z" fill="black"/>
</svg>
