<svg width="58" height="58" viewBox="0 0 58 58" fill="none" xmlns="http://www.w3.org/2000/svg">
<rect width="57.2554" height="57.2554" fill="#F6F1EB"/>
<path fill-rule="evenodd" clip-rule="evenodd" d="M31.2396 18.4967C31.3273 17.9209 31.4419 17.3477 31.4973 16.7689C31.5786 15.9245 31.6091 15.0755 31.6754 14.23C31.7738 12.9644 31.8618 11.697 31.9985 10.4352C32.1048 9.45316 32.2506 8.47349 32.432 7.50234C32.5245 7.01002 32.6971 6.52291 33.0607 6.13865C33.3945 5.78632 33.5545 5.75038 33.9573 6.0216C34.4868 6.37795 34.7836 6.8925 34.9167 7.51227C35.0649 8.20369 35.2009 8.89132 35.232 9.60402C35.2722 10.5099 35.3956 11.4115 35.4619 12.3167C35.5157 13.0413 35.4983 13.7729 35.5832 14.4931C35.7252 15.6993 35.7974 16.9062 35.7789 18.1195C35.7749 18.3622 35.7813 18.6059 35.8003 18.8476C35.8814 19.8535 35.9746 20.858 36.0535 21.8639C36.1299 22.8483 36.1855 23.8346 36.2725 24.8183C36.2846 24.9569 36.4057 25.0978 36.5036 25.2146C37.2702 26.1295 37.5287 27.2224 37.3247 28.3383C37.1825 29.1132 36.7935 29.8703 36.3914 30.5651C35.7848 31.6147 35.0696 32.6027 34.402 33.6178C33.9554 34.2969 33.4958 34.9848 33.3714 35.7994C33.1166 37.4686 33.2205 39.1456 33.3881 40.8158C33.467 41.598 33.6185 42.3729 33.7236 43.1532C33.9262 44.6512 34.1361 46.1492 34.304 47.6521C34.3477 48.0404 34.3696 48.5167 34.1858 48.8252C33.8591 49.3729 33.3936 49.8378 32.7858 50.1409C32.1367 50.4651 31.4626 50.6042 30.7445 50.6921C29.1605 50.8867 27.576 50.812 25.9905 50.8274C25.9106 50.8286 25.8281 50.8096 25.7506 50.7877C24.6578 50.4758 23.5521 50.2015 22.4788 49.8352C21.4883 49.4975 21.5558 49.3183 21.6048 48.3764C21.6071 48.336 21.6226 48.2967 21.6312 48.2575C21.96 46.737 22.2991 45.2185 22.6158 43.6956C22.9648 42.013 23.2808 40.3263 23.2152 38.5921C23.1902 37.9326 23.0811 37.3085 22.7782 36.7202C22.3435 35.8741 21.8276 35.0574 21.5004 34.1721C21.0669 32.9999 20.7547 31.7798 20.4466 30.5663C20.3087 30.0231 20.2927 29.4464 20.2497 28.8826C20.1672 27.797 20.0806 26.7105 20.04 25.6225C20.0012 24.5726 19.9803 23.5194 20.0276 22.4707C20.0497 21.9812 20.0388 21.5118 19.972 21.0273C19.8878 20.4095 19.8669 19.78 19.8645 19.1557C19.864 18.9538 19.9629 18.7126 20.0961 18.5568C20.5445 18.0316 21.1487 17.7611 21.809 17.5702C22.2796 17.4343 22.6348 17.6967 23.0366 17.8053C23.1118 17.8256 23.1841 17.8552 23.2827 17.8892C24.4535 16.8566 25.7092 16.9013 26.9606 17.6655C27.114 17.5589 27.2174 17.4941 27.3127 17.4196C27.8948 16.9639 28.5366 16.805 29.2584 17.0171C29.6275 17.1259 29.9941 17.2463 30.3684 17.3333C30.7838 17.4295 30.9666 17.7237 31.0817 18.0855C31.1228 18.2146 31.1342 18.3529 31.1587 18.4872C31.1856 18.4901 31.2125 18.4934 31.2396 18.4967ZM28.4279 26.8552C27.5515 27.3877 26.9126 28.1342 26.2342 28.859C25.5416 29.5994 25.2429 30.5391 24.7236 31.3724C24.508 30.6393 24.838 30.0252 25.1785 29.4577C25.5285 28.8744 25.9983 28.3622 26.4532 27.7708C26.3307 27.7538 26.2264 27.7301 26.1213 27.7259C25.3635 27.6932 24.7774 27.3688 24.4882 26.662C24.3475 26.3182 24.1325 26.273 23.8249 26.2846C23.4791 26.2976 23.1327 26.2872 22.7872 26.2856C21.8906 26.2813 21.2338 25.8403 20.774 25.117C20.6456 24.9157 20.6152 24.6147 20.6361 24.3676C20.6691 23.9675 20.5861 23.6116 20.3836 23.1754C20.3836 24.0481 20.3515 24.8332 20.3907 25.615C20.4506 26.7833 20.5381 27.9517 20.6577 29.1153C20.7359 29.8763 20.8636 30.6348 21.0206 31.3837C21.1568 32.0354 21.3156 32.6906 21.5532 33.3109C21.8851 34.1759 22.1992 35.0742 22.6995 35.8434C23.6979 37.3781 23.8363 39.0409 23.5738 40.7443C23.2166 43.0581 22.7342 45.3528 22.296 47.6536C22.228 48.0106 22.0901 48.3537 22.0166 48.7094C21.9215 49.17 21.9969 49.3398 22.4004 49.4611C23.4687 49.7817 24.5427 50.0828 25.6196 50.3727C25.8502 50.4346 26.1032 50.4351 26.345 50.4304C27.5648 50.4041 28.7865 50.3994 30.0031 50.3239C30.8487 50.2717 31.6899 50.1691 32.4653 49.738C33.0008 49.4396 33.3955 49.0206 33.7602 48.5621C33.8598 48.4363 33.8881 48.2178 33.8755 48.048C33.8175 47.2428 33.7476 46.4386 33.6558 45.6384C33.5274 44.5155 33.3745 43.3958 33.2333 42.275C33.1149 41.3341 32.9437 40.396 32.8942 39.4516C32.8376 38.3622 32.8638 37.2662 32.899 36.1747C32.9435 34.8337 33.6877 33.7796 34.41 32.7216C34.8782 32.0359 35.3248 31.3357 35.7958 30.6521C36.3089 29.9079 36.637 29.0803 36.9009 28.2295C36.9934 27.9313 36.9575 27.5941 36.9792 27.2747C36.9804 27.2555 36.968 27.2361 36.9635 27.2165C36.575 25.2688 36.6425 25.5159 34.9163 24.2808C33.595 23.335 32.1771 22.5336 30.7041 21.8365C30.0001 21.5031 29.2713 21.2208 28.479 21.2834C27.978 21.3231 27.4706 21.426 26.9934 21.5828C26.3576 21.7913 25.742 22.0663 25.1295 22.3373C24.0895 22.7975 23.0554 23.2714 22.0249 23.7526C21.7883 23.863 21.5567 24.0035 21.3568 24.1709C20.9052 24.5492 20.9098 24.933 21.3197 25.3671C21.6176 25.6823 22.0052 25.8384 22.4082 25.8538C23.666 25.9018 24.9331 25.9734 26.1529 25.5556C26.4777 25.4447 26.7913 25.2971 27.098 25.1423C27.4766 24.9514 27.5267 24.9488 27.7426 25.2697C27.9785 25.6211 28.1935 25.9879 28.4448 26.3281C29.3276 27.5258 30.3872 28.4542 31.9752 28.5516C32.2242 28.5667 32.2235 28.5757 32.4104 28.9507C30.643 29.0311 29.5397 27.9529 28.4279 26.8552ZM35.7925 24.4934C35.7984 24.2711 35.8241 24.0427 35.8074 23.8176C35.6869 22.2293 35.5442 20.6421 35.4353 19.0531C35.3744 18.1671 35.3816 17.2768 35.3278 16.3905C35.257 15.2226 35.155 14.0566 35.0689 12.8894C35.0568 12.7282 35.0639 12.5653 35.0515 12.4042C34.975 11.4402 34.9153 10.474 34.809 9.51322C34.7272 8.77356 34.6048 8.03651 34.4597 7.30631C34.4065 7.03934 34.2776 6.76268 34.1088 6.54939C33.7719 6.12447 33.292 6.19682 33.055 6.6759C32.7164 7.36022 32.6132 8.10744 32.5464 8.84852C32.4089 10.3754 32.3343 11.9076 32.2142 13.4359C32.1058 14.8218 31.9731 16.2058 31.8471 17.5901C31.8178 17.9117 31.7834 18.2338 31.7301 18.552C31.6476 19.0474 31.5874 19.553 31.2591 19.9701C31.2101 20.0318 31.1594 20.1051 31.1476 20.1794C31.0734 20.6331 31.0108 21.089 30.949 21.5111C32.5606 22.5033 34.1452 23.4792 35.7925 24.4934ZM22.8669 22.8145C23.3422 22.5863 23.3415 22.527 23.2682 22.011C23.1924 21.4742 23.1394 20.9318 23.1141 20.3903C23.0892 19.8452 23.113 19.2976 23.1106 18.7511C23.1082 18.1569 22.6671 17.7805 22.0908 17.9282C21.7213 18.0228 21.3492 18.1633 21.0225 18.3567C20.5115 18.6589 20.229 19.0718 20.2511 19.7438C20.2946 21.0916 20.6822 22.3574 20.9449 23.6979C21.6521 23.374 22.2646 23.1042 22.8669 22.8145ZM30.5068 21.3771C30.5893 20.8651 30.6929 20.4014 30.7319 19.9327C30.7745 19.4092 30.7647 18.8802 30.7647 18.3536C30.7655 17.8469 30.677 17.7076 30.1881 17.5613C29.821 17.4511 29.4401 17.365 29.0592 17.3248C28.1183 17.2259 27.2364 17.8672 27.0788 18.8039C26.9692 19.456 26.9554 20.1243 26.9057 20.7859C26.9002 20.8568 26.9463 20.9313 26.987 21.0635C28.1844 20.6348 29.3186 20.8777 30.5068 21.3771ZM26.4613 21.2208C26.5402 20.1063 26.6165 19.029 26.7 17.8556C26.0409 17.4657 25.2881 17.3494 24.4825 17.7041C24.4457 17.7204 24.4129 17.745 24.3777 17.7663C23.3705 18.3737 23.5464 18.181 23.5536 19.1666C23.56 20.0725 23.6139 20.9781 23.657 21.8833C23.6648 22.0368 23.7238 22.1879 23.7704 22.3891C24.7377 21.9692 25.6253 21.5835 26.4613 21.2208ZM24.8016 26.3373C24.7705 26.7495 24.9688 27.0349 25.3423 27.1612C25.6217 27.2553 25.9339 27.3137 26.2271 27.2976C26.7102 27.2711 26.9119 26.9529 26.8229 26.4693C26.7906 26.2948 26.7592 26.12 26.7276 25.9474C26.0785 26.0784 25.4517 26.2054 24.8016 26.3373ZM28.1664 26.4509C27.9478 26.1264 27.7519 25.8358 27.5615 25.553C27.0512 25.7887 27.0426 25.8528 27.3548 27.0335C27.6475 26.8235 27.8858 26.6526 28.1664 26.4509Z" fill="black"/>
</svg>
